<?xml version="1.0" encoding="utf-8"?>
<!-- Generator: Adobe Illustrator 28.2.0, SVG Export Plug-In . SVG Version: 6.00 Build 0)  -->
<svg version="1.1" id="Layer_1" xmlns="http://www.w3.org/2000/svg" xmlns:xlink="http://www.w3.org/1999/xlink" x="0px" y="0px"
	 viewBox="0 0 290 174" style="enable-background:new 0 0 290 174;" xml:space="preserve">
<style type="text/css">
	.st0{fill:none;stroke:#000000;stroke-width:3;stroke-linecap:round;}
</style>
<path d="M133.9,135.8c-0.2,0.3-0.7,1.3-1.7,2.9c0.9,0.5,1.5,0.8,1.8,1c1.8,0.7,3.2,1.8,4.1,3.2c0.9,1.4,1.4,2.9,1.4,4.6
	c0,1.7-0.4,3.3-1.3,4.9c-2.1,4-5.6,7.2-10.4,9.6c-1.2,0.6-2.3,0.9-3.5,0.9c-1.7,0-3.2-0.6-4.6-1.8c-0.6-0.5-1.2-1-2-1.5
	c-0.1,0.2-0.2,0.5-0.3,0.7c-0.1,0.3-0.2,0.5-0.3,0.7c-0.4,0.6-0.9,0.9-1.6,0.9c-0.6,0-1.1-0.2-1.5-0.7c-1.2-1.1-1.9-2.4-1.9-3.9
	c0-1.1,0-2.1-0.1-2.9c0-0.8-0.1-1.5-0.1-2.1c0-0.7-0.1-1.6-0.1-2.6c0-1-0.1-2.3-0.1-3.6c0-2.6,0.1-5,0.4-7.1
	c0.4-3.1,1.1-5.9,2.2-8.6c0.8-2,2.1-3.6,3.7-4.7c1.7-1.1,3.6-1.8,5.9-2c1-0.1,1.8-0.1,2.4-0.1c2.6,0,4.7,0.6,6.4,1.7
	c0.9,0.6,1.6,1.3,2.1,2.2c0.5,0.9,0.8,1.9,0.8,2.9c0,0.9-0.2,1.7-0.6,2.6l-0.5,1C134.6,134.6,134.3,135.2,133.9,135.8z M129.8,131.5
	c0.2-0.5,0.3-1.2,0.5-2.2l0.2-1.1c-1-0.5-2-0.7-3-0.7c-0.8,0-1.5,0.1-2.2,0.4c-1.5,0.5-2.7,1.2-3.7,2.2c-1,1-1.8,2-2.3,3.2
	c-0.6,1.2-1.1,2.6-1.7,4.4c-0.4,1.4-0.6,2.9-0.6,4.5c0,0.9,0.1,2.2,0.2,4c0.1,0.5,0.1,1.4,0.2,2.5c0,0.9,0.2,2.9,0.6,5.8l0.2,1.7
	c0.2,0.1,0.6,0.1,1,0.2c0.7,0.1,1.2,0.2,1.5,0.4c0.3,0.2,0.6,0.5,0.9,0.9c0.3,0.4,0.6,0.7,0.7,0.9c2.1-0.4,3.8-1.3,5.3-2.5
	c1.5-1.3,2.9-2.9,4.4-5c1.1-1.7,1.8-3.2,2-4.5c0.1-0.5,0.2-1,0.2-1.4c0-0.9-0.3-1.6-0.8-2.1c-0.5-0.5-1.2-0.7-2-0.7
	c-0.5,0-1,0.1-1.5,0.2c-1.6,0.5-3.2,1.4-4.8,3c-0.8,0.7-1.7,1.1-2.5,1.1c-0.5,0-1.1-0.2-1.6-0.5c-0.7-0.4-1.2-0.8-1.7-1.2
	c-0.5-0.5-0.8-1-1.1-1.8l1.2-0.8c1.2-0.9,2.2-1.5,2.9-1.9C125.6,138.5,128.1,135.6,129.8,131.5z M149.9,135.8
	c-0.1,0.2-0.3,0.4-0.8,0.7c-0.4,0.2-0.8,0.5-1,0.7l-1.5-0.8c-1.4-0.8-2.4-1.4-2.9-1.8c-0.3-0.2-0.4-0.5-0.4-0.8
	c0-0.2,0.1-0.4,0.2-0.5c0.2-0.2,0.4-0.3,0.7-0.3c1.4,0,3,0.3,4.9,1c0.2,0,0.4,0.3,0.6,0.7C150,135.1,150,135.5,149.9,135.8z
	 M145.3,145.4c0.1-0.5,0.2-0.8,0.2-1c0-0.2,0.1-0.4,0.1-0.7c0-0.5,0.1-0.9,0.4-1.1c0.3-0.3,0.9-0.4,1.7-0.4c1,0,1.8,0.3,2.5,0.9
	c0.8,0.6,1.2,1.4,1.4,2.3c0.1,0.5,0.2,1,0.2,1.6c0,0.6,0.1,1,0.1,1.1l0.7,8.9c0.1,0.9,0,1.7-0.4,2.2c-0.3,0.5-1,0.7-2,0.7
	c-0.9,0-1.6-0.2-2.2-0.7c-0.6-0.5-1-1.1-1.1-1.9l-1.4-11L145.3,145.4z M176.1,142.4c0.3,0.6,0.6,1.3,0.8,2.1
	c0.3,0.8,0.5,1.3,0.6,1.5l0.5,1.4c-0.4,2-0.8,3.6-1.2,4.9c-0.4,1.2-1,2.4-1.8,3.5c-0.8,1.1-1.9,2-3.3,2.7c-1.3,0.7-2.7,1-4.1,1
	c-1.6,0-3.1-0.4-4.6-1.1c-1.5-0.7-2.7-1.7-3.7-3c-1-1.3-1.6-2.8-1.8-4.4c-0.1-0.8-0.1-1.5-0.1-1.9c0-1.2,0.2-2.3,0.5-3.3
	c0.4-1,1-1.9,2-2.8c0.3-0.2,0.6-0.7,0.9-1.4c0.3-0.6,0.6-1.1,0.9-1.4c1.5-1.6,3.2-2.3,5.2-2.3c1,0,2.2,0.2,3.5,0.7
	c0.2,0.1,0.7,0.3,1.7,0.6c1,0.3,1.8,0.8,2.5,1.4C175.2,141,175.7,141.6,176.1,142.4z M167,140.7c-1.3,1-2.2,2.3-2.8,3.7
	c-0.5,1.4-1,3.3-1.4,5.8c0.1,0.3,0.2,0.9,0.5,1.8c0.2,0.9,0.5,1.7,0.9,2.5c0.4,0.9,1.1,1.4,2,1.4c0.2,0,0.5,0,1-0.1
	c1.1-0.2,2-0.8,2.8-1.8c0.8-1,1.5-2.3,1.9-3.6c0.5-1.4,0.7-2.7,0.7-3.8c0-2.3-1-4.3-2.9-5.9c-0.5-0.4-0.9-0.6-1.3-0.6
	C168.1,140,167.6,140.2,167,140.7z"/>
<path class="st0" d="M208,10c-20.9,2.8-39.6,21.4-53.7,37.5c-8.1,9.2-12.3,19.3-18.2,30.1c-3,5.4-9.2,21.8-4.4,18.3
	c3.8-2.8,6.9-6.3,10.1-9.8c4.9-5.3,11-8.7,15.9-14c7.3-8-14.7,15.9-22.6,23.3c-8.5,7.9-10.8-3.3-11.5-11.9c-0.5-6.4-5-13.4-7.7-19.2
	"/>
</svg>
