<svg width="45" height="45" viewBox="0 0 45 45" fill="none" xmlns="http://www.w3.org/2000/svg">
<path fill-rule="evenodd" clip-rule="evenodd" d="M21.4372 7.68507C22.0869 7.9973 22.5 8.65426 22.5 9.37502V35.625C22.5 36.3458 22.0869 37.0027 21.4372 37.315C20.7876 37.6272 20.0165 37.5394 19.4537 37.0891L10.5923 30H3.75C2.71447 30 1.875 29.1606 1.875 28.125V16.875C1.875 15.8395 2.71447 15 3.75 15H10.5923L19.4537 7.91089C20.0165 7.46063 20.7876 7.37285 21.4372 7.68507ZM18.75 13.2762L12.4213 18.3391C12.0888 18.6051 11.6758 18.75 11.25 18.75H5.625V26.25H11.25C11.6758 26.25 12.0888 26.3949 12.4213 26.6609L18.75 31.7238V13.2762ZM28.6742 15.5492C29.4064 14.817 30.5936 14.817 31.3258 15.5492L35.625 19.8484L39.9242 15.5492C40.6564 14.817 41.8436 14.817 42.5758 15.5492C43.3081 16.2814 43.3081 17.4686 42.5758 18.2008L38.2766 22.5L42.5758 26.7992C43.3081 27.5314 43.3081 28.7186 42.5758 29.4508C41.8436 30.1831 40.6564 30.1831 39.9242 29.4508L35.625 25.1517L31.3258 29.4508C30.5936 30.1831 29.4064 30.1831 28.6742 29.4508C27.9419 28.7186 27.9419 27.5314 28.6742 26.7992L32.9734 22.5L28.6742 18.2008C27.9419 17.4686 27.9419 16.2814 28.6742 15.5492Z" fill="#130F14"/>
<path fill-rule="evenodd" clip-rule="evenodd" d="M21.4372 7.68507C22.0869 7.9973 22.5 8.65426 22.5 9.37502V35.625C22.5 36.3458 22.0869 37.0027 21.4372 37.315C20.7876 37.6272 20.0165 37.5394 19.4537 37.0891L10.5923 30H3.75C2.71447 30 1.875 29.1606 1.875 28.125V16.875C1.875 15.8395 2.71447 15 3.75 15H10.5923L19.4537 7.91089C20.0165 7.46063 20.7876 7.37285 21.4372 7.68507ZM18.75 13.2762L12.4213 18.3391C12.0888 18.6051 11.6758 18.75 11.25 18.75H5.625V26.25H11.25C11.6758 26.25 12.0888 26.3949 12.4213 26.6609L18.75 31.7238V13.2762ZM28.6742 15.5492C29.4064 14.817 30.5936 14.817 31.3258 15.5492L35.625 19.8484L39.9242 15.5492C40.6564 14.817 41.8436 14.817 42.5758 15.5492C43.3081 16.2814 43.3081 17.4686 42.5758 18.2008L38.2766 22.5L42.5758 26.7992C43.3081 27.5314 43.3081 28.7186 42.5758 29.4508C41.8436 30.1831 40.6564 30.1831 39.9242 29.4508L35.625 25.1517L31.3258 29.4508C30.5936 30.1831 29.4064 30.1831 28.6742 29.4508C27.9419 28.7186 27.9419 27.5314 28.6742 26.7992L32.9734 22.5L28.6742 18.2008C27.9419 17.4686 27.9419 16.2814 28.6742 15.5492Z" fill="white" fill-opacity="0.2"/>
</svg>
